<svg xmlns="http://www.w3.org/2000/svg" viewBox="0 0 960 540" role="img" aria-labelledby="title desc">
  <title id="title">Install or open the selected AI app</title>
  <desc id="desc">A smartphone home screen, app store button, browser address bar, and chat input field.</desc>
  <defs>
    <linearGradient id="bg" x1="0" x2="1" y1="0" y2="1">
      <stop offset="0" stop-color="#fff7ed"/>
      <stop offset="1" stop-color="#f8fafc"/>
    </linearGradient>
    <filter id="shadow" x="-20%" y="-20%" width="140%" height="140%">
      <feDropShadow dx="0" dy="18" stdDeviation="18" flood-color="#0f172a" flood-opacity=".13"/>
    </filter>
  </defs>
  <rect width="960" height="540" rx="32" fill="url(#bg)"/>
  <rect x="112" y="92" width="212" height="342" rx="34" fill="#111827" filter="url(#shadow)"/>
  <rect x="130" y="126" width="176" height="256" rx="20" fill="#f8fafc"/>
  <circle cx="218" cy="405" r="10" fill="#475569"/>
  <rect x="156" y="160" width="46" height="46" rx="13" fill="#2563eb"/>
  <rect x="230" y="160" width="46" height="46" rx="13" fill="#22c55e"/>
  <rect x="156" y="236" width="46" height="46" rx="13" fill="#f97316"/>
  <rect x="230" y="236" width="46" height="46" rx="13" fill="#94a3b8"/>
  <path d="M456 164h282a30 30 0 0 1 30 30v70H426v-70a30 30 0 0 1 30-30z" fill="#ffffff" filter="url(#shadow)"/>
  <rect x="466" y="204" width="252" height="22" rx="11" fill="#e2e8f0"/>
  <rect x="510" y="296" width="240" height="72" rx="22" fill="#2563eb"/>
  <path d="M594 320v24m-12-12h24" stroke="#ffffff" stroke-width="12" stroke-linecap="round"/>
  <rect x="426" y="392" width="342" height="54" rx="18" fill="#ffffff"/>
  <rect x="456" y="411" width="210" height="16" rx="8" fill="#cbd5e1"/>
  <path d="M360 256h72" stroke="#f97316" stroke-width="16" stroke-linecap="round"/>
  <path d="M410 224l34 32-34 32" fill="none" stroke="#f97316" stroke-width="16" stroke-linecap="round" stroke-linejoin="round"/>
  <text x="532" y="344" fill="#ffffff" font-family="Arial, sans-serif" font-size="24" font-weight="700">INSTALL</text>
</svg>
