<svg xmlns="http://www.w3.org/2000/svg" viewBox="0 0 960 540" role="img" aria-labelledby="title desc">
  <title id="title">Prepare material before opening AI</title>
  <desc id="desc">A phone, note cards, and a checklist showing source material preparation.</desc>
  <defs>
    <linearGradient id="bg" x1="0" x2="1" y1="0" y2="1">
      <stop offset="0" stop-color="#eff6ff"/>
      <stop offset="1" stop-color="#f8fafc"/>
    </linearGradient>
    <filter id="shadow" x="-20%" y="-20%" width="140%" height="140%">
      <feDropShadow dx="0" dy="18" stdDeviation="18" flood-color="#0f172a" flood-opacity=".12"/>
    </filter>
  </defs>
  <rect width="960" height="540" rx="32" fill="url(#bg)"/>
  <rect x="78" y="80" width="804" height="380" rx="30" fill="#ffffff" filter="url(#shadow)"/>
  <rect x="136" y="126" width="198" height="286" rx="30" fill="#111827"/>
  <rect x="153" y="154" width="164" height="224" rx="18" fill="#e0f2fe"/>
  <circle cx="235" cy="395" r="10" fill="#334155"/>
  <rect x="384" y="136" width="372" height="62" rx="18" fill="#dbeafe"/>
  <rect x="414" y="158" width="168" height="14" rx="7" fill="#2563eb"/>
  <rect x="384" y="222" width="372" height="62" rx="18" fill="#f1f5f9"/>
  <rect x="414" y="243" width="226" height="13" rx="7" fill="#64748b"/>
  <rect x="384" y="308" width="372" height="62" rx="18" fill="#f1f5f9"/>
  <rect x="414" y="329" width="258" height="13" rx="7" fill="#64748b"/>
  <path d="M787 158l14 14 30-34" fill="none" stroke="#16a34a" stroke-width="12" stroke-linecap="round" stroke-linejoin="round"/>
  <path d="M787 244l14 14 30-34" fill="none" stroke="#16a34a" stroke-width="12" stroke-linecap="round" stroke-linejoin="round"/>
  <rect x="176" y="184" width="118" height="14" rx="7" fill="#2563eb"/>
  <rect x="176" y="222" width="90" height="12" rx="6" fill="#64748b"/>
  <rect x="176" y="252" width="112" height="12" rx="6" fill="#64748b"/>
  <rect x="176" y="282" width="76" height="12" rx="6" fill="#64748b"/>
  <text x="414" y="407" fill="#0f172a" font-family="Arial, sans-serif" font-size="24" font-weight="700">SOURCE FIRST</text>
</svg>
