<svg xmlns="http://www.w3.org/2000/svg" viewBox="0 0 960 540" role="img" aria-labelledby="title desc">
  <title id="title">Remove private information</title>
  <desc id="desc">A document with private fields covered by safe blocks before sending to AI.</desc>
  <defs>
    <linearGradient id="bg" x1="0" x2="1" y1="0" y2="1">
      <stop offset="0" stop-color="#f0fdf4"/>
      <stop offset="1" stop-color="#f8fafc"/>
    </linearGradient>
    <filter id="shadow" x="-20%" y="-20%" width="140%" height="140%">
      <feDropShadow dx="0" dy="18" stdDeviation="18" flood-color="#0f172a" flood-opacity=".12"/>
    </filter>
  </defs>
  <rect width="960" height="540" rx="32" fill="url(#bg)"/>
  <rect x="174" y="70" width="430" height="400" rx="24" fill="#ffffff" filter="url(#shadow)"/>
  <rect x="224" y="122" width="170" height="18" rx="9" fill="#2563eb"/>
  <rect x="224" y="178" width="300" height="18" rx="9" fill="#cbd5e1"/>
  <rect x="224" y="224" width="248" height="18" rx="9" fill="#cbd5e1"/>
  <rect x="224" y="270" width="282" height="18" rx="9" fill="#cbd5e1"/>
  <rect x="224" y="316" width="220" height="18" rx="9" fill="#cbd5e1"/>
  <rect x="380" y="168" width="166" height="36" rx="10" fill="#0f172a"/>
  <rect x="310" y="214" width="210" height="36" rx="10" fill="#0f172a"/>
  <rect x="440" y="260" width="112" height="36" rx="10" fill="#0f172a"/>
  <rect x="286" y="306" width="158" height="36" rx="10" fill="#0f172a"/>
  <circle cx="700" cy="238" r="88" fill="#dcfce7"/>
  <path d="M664 240l28 28 62-74" fill="none" stroke="#16a34a" stroke-width="18" stroke-linecap="round" stroke-linejoin="round"/>
  <rect x="632" y="350" width="170" height="54" rx="18" fill="#ffffff"/>
  <text x="666" y="385" fill="#166534" font-family="Arial, sans-serif" font-size="24" font-weight="700">SAFE COPY</text>
</svg>
