<svg xmlns="http://www.w3.org/2000/svg" viewBox="0 0 960 540" role="img" aria-labelledby="title desc">
  <title id="title">Verify AI answer against the source</title>
  <desc id="desc">Two panels comparing source material and an AI answer with highlighted checks.</desc>
  <defs>
    <linearGradient id="bg" x1="0" x2="1" y1="0" y2="1">
      <stop offset="0" stop-color="#f5f3ff"/>
      <stop offset="1" stop-color="#f8fafc"/>
    </linearGradient>
    <filter id="shadow" x="-20%" y="-20%" width="140%" height="140%">
      <feDropShadow dx="0" dy="18" stdDeviation="18" flood-color="#0f172a" flood-opacity=".12"/>
    </filter>
  </defs>
  <rect width="960" height="540" rx="32" fill="url(#bg)"/>
  <rect x="94" y="104" width="330" height="324" rx="26" fill="#ffffff" filter="url(#shadow)"/>
  <rect x="536" y="104" width="330" height="324" rx="26" fill="#ffffff" filter="url(#shadow)"/>
  <rect x="132" y="148" width="120" height="18" rx="9" fill="#2563eb"/>
  <rect x="574" y="148" width="132" height="18" rx="9" fill="#7c3aed"/>
  <rect x="132" y="206" width="232" height="16" rx="8" fill="#cbd5e1"/>
  <rect x="132" y="252" width="204" height="16" rx="8" fill="#cbd5e1"/>
  <rect x="132" y="298" width="250" height="16" rx="8" fill="#cbd5e1"/>
  <rect x="574" y="206" width="222" height="16" rx="8" fill="#cbd5e1"/>
  <rect x="574" y="252" width="246" height="16" rx="8" fill="#cbd5e1"/>
  <rect x="574" y="298" width="190" height="16" rx="8" fill="#cbd5e1"/>
  <path d="M460 224h54" stroke="#64748b" stroke-width="12" stroke-linecap="round"/>
  <path d="M498 202l28 28-28 28" fill="none" stroke="#64748b" stroke-width="12" stroke-linecap="round" stroke-linejoin="round"/>
  <circle cx="774" cy="356" r="44" fill="#dcfce7"/>
  <path d="M754 358l14 14 32-38" fill="none" stroke="#16a34a" stroke-width="10" stroke-linecap="round" stroke-linejoin="round"/>
  <rect x="132" y="350" width="180" height="38" rx="12" fill="#eff6ff"/>
  <rect x="574" y="350" width="120" height="38" rx="12" fill="#f3e8ff"/>
  <text x="172" y="377" fill="#1d4ed8" font-family="Arial, sans-serif" font-size="20" font-weight="700">SOURCE</text>
  <text x="610" y="377" fill="#6d28d9" font-family="Arial, sans-serif" font-size="20" font-weight="700">ANSWER</text>
</svg>
